<svg width="23" height="20" viewBox="0 0 23 20" fill="none" xmlns="http://www.w3.org/2000/svg">
<path fill-rule="evenodd" clip-rule="evenodd" d="M0 1.6C0 1.17565 0.168571 0.768688 0.468629 0.468629C0.768687 0.168571 1.17565 0 1.6 0H20.8C21.2243 0 21.6313 0.168571 21.9314 0.468629C22.2314 0.768688 22.4 1.17565 22.4 1.6C22.4 2.02435 22.2314 2.43131 21.9314 2.73137C21.6313 3.03143 21.2243 3.2 20.8 3.2H1.6C1.17565 3.2 0.768687 3.03143 0.468629 2.73137C0.168571 2.43131 0 2.02435 0 1.6ZM0 9.6C0 9.17565 0.168571 8.76869 0.468629 8.46863C0.768687 8.16857 1.17565 8 1.6 8H20.8C21.2243 8 21.6313 8.16857 21.9314 8.46863C22.2314 8.76869 22.4 9.17565 22.4 9.6C22.4 10.0243 22.2314 10.4313 21.9314 10.7314C21.6313 11.0314 21.2243 11.2 20.8 11.2H1.6C1.17565 11.2 0.768687 11.0314 0.468629 10.7314C0.168571 10.4313 0 10.0243 0 9.6ZM0 17.6C0 17.1757 0.168571 16.7687 0.468629 16.4686C0.768687 16.1686 1.17565 16 1.6 16H11.2C11.6243 16 12.0313 16.1686 12.3314 16.4686C12.6314 16.7687 12.8 17.1757 12.8 17.6C12.8 18.0243 12.6314 18.4313 12.3314 18.7314C12.0313 19.0314 11.6243 19.2 11.2 19.2H1.6C1.17565 19.2 0.768687 19.0314 0.468629 18.7314C0.168571 18.4313 0 18.0243 0 17.6Z" fill="black"/>
</svg>
